#!OML:ASF F:\VICON\USERDATA\INSTALL\rory3\rory3.ASF
:FULLY-SPECIFIED
:DEGREES
841
root 13.2025 18.1687 0.971826 0.664174 173.256 0.019023
lowerback 11.0403 5.69934 3.9841
upperback 1.65956 8.14758 -2.63262
thorax -3.46544 4.08574 -6.05285
lowerneck -18.8603 12.6436 -7.32765
upperneck 44.4526 17.3968 2.92751
head 19.1847 4.46234 5.63873
rclavicle 2.75814e-014 -7.55382e-015
rhumerus -32.3084 -9.47348 -83.9185
rradius 36.7671
rwrist 3.83904
rhand -15.0757 8.63833
rfingers 7.12502
rthumb 11.0917 -21.0486
lclavicle 2.75814e-014 -7.55382e-015
lhumerus -33.9678 14.4616 74.0053
lradius 32.5378
lwrist -5.87393
lhand -20.4215 27.0065
lfingers 7.12502
lthumb 5.93289 56.9035
rfemur 9.03026 0.534502 22.8044
rtibia 25.9192
rfoot -6.32726 -3.06
rtoes -10.7292
lfemur -18.0805 -5.17878 -20.0341
ltibia 20.9505
lfoot 6.25888 -20.6297
ltoes 9.5278
842
root 13.1926 18.1697 1.11229 0.92746 173.313 0.0603515
lowerback 11.1539 5.76706 4.25219
upperback 1.6743 8.2753 -2.69831
thorax -3.44839 4.14951 -6.29496
lowerneck -18.7245 12.8524 -7.10808
upperneck 44.4232 17.759 2.63387
head 19.1863 4.60781 5.52587
rclavicle -3.97072e-014 7.15625e-015
rhumerus -31.8352 -9.08853 -83.9314
rradius 36.5445
rwrist 4.21887
rhand -16.0097 9.36518
rfingers 7.12502
rthumb 10.1908 -20.368
lclavicle -3.97072e-014 7.15625e-015
lhumerus -34.0241 14.971 73.9226
lradius 32.3991
lwrist -5.93192
lhand -20.27 27.2114
lfingers 7.12502
lthumb 6.07917 57.1041
rfemur 8.70613 0.709585 22.9821
rtibia 25.2627
rfoot -6.96217 -3.68383
rtoes -9.94445
lfemur -18.5964 -5.49154 -19.7701
ltibia 20.3865
lfoot 6.94903 -20.5322
ltoes 9.55737
843
root 13.1869 18.173 1.25232 1.22008 173.311 0.169106
lowerback 11.2093 5.83379 4.51031
upperback 1.71895 8.40065 -2.7465
thorax -3.37083 4.21607 -6.50273
lowerneck -18.7573 13.028 -7.00632
upperneck 44.3998 18.0958 2.48843
head 19.1962 4.74921 5.51079
rclavicle -2.62396e-014 -2.78299e-015
rhumerus -31.3446 -8.82128 -83.9801
rradius 36.4616
rwrist 4.80588
rhand -16.904 9.92394
rfingers 7.12502
rthumb 9.32797 -19.8497
lclavicle -2.62396e-014 -2.78299e-015
lhumerus -34.0273 15.6257 73.8276
lradius 32.283
lwrist -6.02081
lhand -20.2648 27.0663
lfingers 7.12502
lthumb 6.08417 56.9589
rfemur 8.24501 0.71678 23.2069
rtibia 24.779
rfoot -7.48223 -3.99192
rtoes -10.059
lfemur -19.123 -5.5917 -19.44
ltibia 19.7333
lfoot 7.83503 -20.533
ltoes 9.58934
844
root 13.183 18.1777 1.38985 1.49008 173.32 0.139077
lowerback 11.3472 5.91411 4.5985
upperback 1.71834 8.52537 -2.82001
thorax -3.40559 4.2779 -6.65944
lowerneck -18.8286 13.1913 -6.99939
upperneck 44.475 18.3965 2.46384
head 19.2453 4.86278 5.56647
rclavicle -5.29264e-014 3.10104e-014
rhumerus -31.1333 -8.41492 -83.9791
rradius 36.8214
rwrist 4.70675
rhand -17.078 9.63158
rfingers 7.12502
rthumb 9.16004 -20.1495
lclavicle -5.29264e-014 3.10104e-014
lhumerus -34.1549 16.1473 73.7652
lradius 32.2698
lwrist -6.00539
lhand -20.3462 26.8598
lfingers 7.12502
lthumb 6.00562 56.7547
rfemur 7.6738 0.610566 23.2579
rtibia 24.4783
rfoot -7.89747 -4.18207
rtoes -10.2051
lfemur -19.5955 -5.73588 -19.2252
ltibia 18.9436
lfoot 8.96331 -20.4077
ltoes 9.64171
845
root 13.1777 18.1834 1.52184 1.6951 173.504 0.0702571
lowerback 11.4594 5.95719 4.70082
upperback 1.74692 8.60387 -2.89431
thorax -3.39926 4.32018 -6.81423
lowerneck -18.8825 13.3287 -6.94797
upperneck 44.6245 18.6204 2.45339
head 19.3482 4.94063 5.61339
rclavicle -1.27272e-013 3.93594e-014
rhumerus -31.0015 -8.12322 -83.8807
rradius 37.3332
rwrist 4.48138
rhand -16.8261 9.0481
rfingers 7.12502
rthumb 9.40315 -20.7221
lclavicle -1.27272e-013 3.93594e-014
lhumerus -34.2972 16.4671 73.7875
lradius 32.247
lwrist -5.87379
lhand -20.4737 26.9243
lfingers 7.12502
lthumb 5.88249 56.8226
rfemur 7.11549 0.403512 23.2529
rtibia 24.2998
rfoot -8.3641 -4.39339
rtoes -9.92802
lfemur -19.9525 -6.01211 -19.0547
ltibia 18.0752
lfoot 9.96912 -20.2673
ltoes 10.2125
846
root 13.1729 18.1913 1.65199 1.86367 173.7 -0.0146
lowerback 11.531 6.00028 4.76289
upperback 1.79088 8.67709 -2.95583
thorax -3.36271 4.36226 -6.92624
lowerneck -18.9092 13.4356 -6.84922
upperneck 44.7404 18.7922 2.39956
head 19.4436 5.00284 5.62115
rclavicle -1.55648e-013 6.0033e-014
rhumerus -30.8546 -8.1042 -83.7092
rradius 37.7278
rwrist 4.50532
rhand -16.6102 8.6979
rfingers 7.12502
rthumb 9.61148 -21.0628
lclavicle -1.55648e-013 6.0033e-014
lhumerus -34.3513 16.8701 73.8068
lradius 32.0189
lwrist -5.95886
lhand -20.479 27.14
lfingers 7.12502
lthumb 5.8774 57.0385
rfemur 6.55346 0.228409 23.2226
rtibia 24.2142
rfoot -8.8231 -4.62978
rtoes -10.2792
lfemur -20.2817 -6.15972 -18.9457
ltibia 17.2246
lfoot 10.7521 -20.1601
ltoes 10.5095
847
root 13.1672 18.1991 1.78153 2.00899 173.853 -0.0692948
lowerback 11.625 6.0381 4.80823
upperback 1.88509 8.74647 -2.96962
thorax -3.29599 4.40628 -6.97745
lowerneck -19.0979 13.5028 -6.92582
upperneck 44.8578 18.9723 2.43893
head 19.5391 5.05465 5.71312
rclavicle -4.9398e-014 2.32578e-014
rhumerus -30.5612 -8.04869 -83.5112
rradius 37.9917
rwrist 4.41176
rhand -16.6359 8.61722
rfingers 7.12502
rthumb 9.58662 -21.1447
lclavicle -4.9398e-014 2.32578e-014
lhumerus -34.2861 17.4662 73.856
lradius 31.6763
lwrist -6.16765
lhand -20.4129 27.1539
lfingers 7.12502
lthumb 5.94119 57.0506
rfemur 5.95484 0.12264 23.2276
rtibia 24.252
rfoot -9.18681 -4.87385
rtoes -10.287
lfemur -20.5737 -6.2568 -18.814
ltibia 16.4104
lfoot 11.5631 -19.9549
ltoes 8.94266
848
root 13.1644 18.1989 1.91501 2.10813 174.042 0.0484829
lowerback 11.8513 6.05738 4.93052
upperback 1.96057 8.80531 -2.87318
thorax -3.32897 4.43691 -6.97456
lowerneck -19.1526 13.5908 -7.03754
upperneck 44.9524 19.1698 2.4669
head 19.5776 5.11213 5.78973
rclavicle -2.67862e-014 -2.5842e-014
rhumerus -30.3037 -7.69507 -83.2724
rradius 38.3404
rwrist 4.05436
rhand -16.7066 8.29346
rfingers 7.12502
rthumb 9.51848 -21.4716
lclavicle -2.67862e-014 -2.5842e-014
lhumerus -34.3525 17.8096 74.0789
lradius 31.5406
lwrist -6.08457
lhand -20.2197 26.9301
lfingers 7.12502
lthumb 6.12769 56.8215
rfemur 5.33724 0.109497 23.4729
rtibia 24.4555
rfoot -9.4205 -5.16478
rtoes -9.58825
lfemur -20.7415 -6.15924 -18.5174
ltibia 15.5984
lfoot 12.5325 -19.7639
ltoes 7.88897
849
root 13.1634 18.1924 2.0457 2.23094 174.233 0.081306
lowerback 12.026 6.10043 4.96394
upperback 1.98198 8.87888 -2.84913
thorax -3.38989 4.4725 -6.99837
lowerneck -19.1459 13.662 -7.01618
upperneck 45.0129 19.256 2.55019
head 19.5923 5.1666 5.84681
rclavicle -1.68967e-014 -8.94531e-015
rhumerus -30.1916 -7.31654 -83.065
rradius 38.6089
rwrist 3.61624
rhand -16.6857 8.46417
rfingers 7.12502
rthumb 9.53858 -21.2999
lclavicle -1.68967e-014 -8.94531e-015
lhumerus -34.5495 17.783 74.2975
lradius 31.5681
lwrist -5.96858
lhand -19.8839 27.0961
lfingers 7.12502
lthumb 6.45188 56.9778
rfemur 4.6579 0.109514 23.6159
rtibia 24.7378
rfoot -9.59683 -5.35707
rtoes -10.5878
lfemur -20.9337 -6.0101 -18.3262
ltibia 14.9505
lfoot 13.0289 -19.7947
ltoes 7.50764
